<?xml version="1.0" encoding="UTF-8"?>
<svg id="Calque_1" data-name="Calque 1" xmlns="http://www.w3.org/2000/svg" viewBox="0 0 117.56 63">
  <defs>
    <style>
      .cls-1 {
        fill: #fff;
      }

      .cls-2 {
        fill: rgba(0, 67, 255, .5);
      }

      .cls-3 {
        fill: #999bfd;
      }

      .cls-4 {
        fill: rgba(124, 133, 166, .5);
      }
    </style>
  </defs>
  <path class="cls-1" d="m2.08,15h23.62c1.15,0,2.08,1.34,2.08,3v42c0,1.66-.93,3-2.08,3H2.08c-1.15,0-2.08-1.34-2.08-3V18c0-1.66.93-3,2.08-3Z"/>
  <path class="cls-3" d="m4.17,50h19.45c.38,0,.69.45.69,1v6c0,.55-.31,1-.69,1H4.17c-.38,0-.69-.45-.69-1v-6c0-.55.31-1,.69-1Z"/>
  <rect class="cls-4" x="3.66" y="40" width="20.47" height="2"/>
  <rect class="cls-4" x="6.58" y="44" width="14.62" height="2"/>
  <g id="SVGRepo_iconCarrier" data-name="SVGRepo iconCarrier">
    <path class="cls-3" d="m6.51,32.87c-.31,0-.57-.26-.57-.58v-12.71c0-.32.25-.58.57-.58h14.76c.31,0,.57.26.57.58v12.71c0,.32-.25.58-.57.58H6.51Zm5.6-4.12l-1.22-1.24c-.22-.23-.58-.23-.8,0l-3,3.06h13.82l-4.3-5.25c-.2-.25-.56-.28-.8-.07-.03.02-.05.05-.07.07l-2.78,3.39c-.2.25-.56.28-.8.07-.01-.01-.03-.02-.04-.04h0Zm-2.76-5.12c0,.96.76,1.73,1.7,1.73s1.7-.78,1.7-1.73h0c0-.96-.76-1.73-1.7-1.73s-1.7.78-1.7,1.73Z"/>
  </g>
  <path class="cls-1" d="m32.01,15h23.62c1.15,0,2.08,1.34,2.08,3v42c0,1.66-.93,3-2.08,3h-23.62c-1.15,0-2.08-1.34-2.08-3V18c0-1.66.93-3,2.08-3Z"/>
  <path class="cls-3" d="m34.09,50h19.45c.38,0,.69.45.69,1v6c0,.55-.31,1-.69,1h-19.45c-.38,0-.69-.45-.69-1v-6c0-.55.31-1,.69-1Z"/>
  <rect class="cls-4" x="33.58" y="40" width="20.47" height="2"/>
  <rect class="cls-4" x="36.5" y="44" width="14.62" height="2"/>
  <g id="SVGRepo_iconCarrier-2" data-name="SVGRepo iconCarrier">
    <path class="cls-3" d="m36.44,32.87c-.31,0-.57-.26-.57-.58v-12.71c0-.32.25-.58.57-.58h14.76c.31,0,.57.26.57.58v12.71c0,.32-.25.58-.57.58h-14.76Zm5.6-4.12l-1.22-1.24c-.22-.23-.58-.23-.8,0l-3,3.06h13.82l-4.3-5.25c-.2-.25-.56-.28-.8-.07-.03.02-.05.05-.07.07l-2.78,3.39c-.2.25-.56.28-.8.07-.01-.01-.03-.02-.04-.04h0Zm-2.76-5.12c0,.96.76,1.73,1.7,1.73s1.7-.78,1.7-1.73h0c0-.96-.76-1.73-1.7-1.73s-1.7.78-1.7,1.73Z"/>
  </g>
  <path class="cls-1" d="m61.93,15h23.62c1.15,0,2.08,1.34,2.08,3v42c0,1.66-.93,3-2.08,3h-23.62c-1.15,0-2.08-1.34-2.08-3V18c0-1.66.93-3,2.08-3Z"/>
  <path class="cls-3" d="m64.02,50h19.45c.38,0,.69.45.69,1v6c0,.55-.31,1-.69,1h-19.45c-.38,0-.69-.45-.69-1v-6c0-.55.31-1,.69-1Z"/>
  <rect class="cls-4" x="63.5" y="40" width="20.47" height="2"/>
  <rect class="cls-4" x="66.43" y="44" width="14.62" height="2"/>
  <g id="SVGRepo_iconCarrier-3" data-name="SVGRepo iconCarrier">
    <path class="cls-3" d="m66.36,32.87c-.31,0-.57-.26-.57-.58v-12.71c0-.32.25-.58.57-.58h14.76c.31,0,.57.26.57.58v12.71c0,.32-.25.58-.57.58h-14.76Zm5.6-4.12l-1.22-1.24c-.22-.23-.58-.23-.8,0l-3,3.06h13.82l-4.3-5.25c-.2-.25-.56-.28-.8-.07-.03.02-.05.05-.07.07l-2.78,3.39c-.2.25-.56.28-.8.07-.01-.01-.03-.02-.04-.04h0Zm-2.76-5.12c0,.96.76,1.73,1.7,1.73s1.7-.78,1.7-1.73h0c0-.96-.76-1.73-1.7-1.73s-1.7.78-1.7,1.73Z"/>
  </g>
  <path class="cls-1" d="m91.86,15h23.62c1.15,0,2.08,1.34,2.08,3v42c0,1.66-.93,3-2.08,3h-23.62c-1.15,0-2.08-1.34-2.08-3V18c0-1.66.93-3,2.08-3Z"/>
  <path class="cls-3" d="m93.94,50h19.45c.38,0,.69.45.69,1v6c0,.55-.31,1-.69,1h-19.45c-.38,0-.69-.45-.69-1v-6c0-.55.31-1,.69-1Z"/>
  <rect class="cls-4" x="93.43" y="40" width="20.47" height="2"/>
  <rect class="cls-4" x="96.35" y="44" width="14.62" height="2"/>
  <g id="SVGRepo_iconCarrier-4" data-name="SVGRepo iconCarrier">
    <path class="cls-3" d="m96.28,32.87c-.31,0-.57-.26-.57-.58v-12.71c0-.32.25-.58.57-.58h14.76c.31,0,.57.26.57.58v12.71c0,.32-.25.58-.57.58h-14.76Zm5.6-4.12l-1.22-1.24c-.22-.23-.58-.23-.8,0l-3,3.06h13.82l-4.3-5.25c-.2-.25-.56-.28-.8-.07-.03.02-.05.05-.07.07l-2.78,3.39c-.2.25-.56.28-.8.07-.01-.01-.03-.02-.04-.04h0Zm-2.76-5.12c0,.96.76,1.73,1.7,1.73s1.7-.78,1.7-1.73h0c0-.96-.76-1.73-1.7-1.73s-1.7.78-1.7,1.73Z"/>
  </g>
  <rect class="cls-2" x="28.27" width="60.79" height="4"/>
</svg>