<svg width="0" height="0" class="hidden">
  <symbol id="columns" xmlns="http://www.w3.org/2000/svg" viewBox="0 0 106 56">
    <rect style="fill:var(--background)" y="12" width="34" height="44" rx="3"/>
    <path style="fill:var(--contrast)" d="M28 0h50v4H28z"/>
    <path style="fill:var(--color-dark)" d="M4 40h26v2H4zM4 44h26v2H4zM4 48h26v2H4z"/>
    <path style="fill:var(--contrast)" d="M4 16.23h26v2H4z"/>
    <path style="fill:var(--color-dark)"
          d="M9 23.12v12h16v-12Zm0-2h16a2 2 0 0 1 2 2v12a2 2 0 0 1-2 2H9a2 2 0 0 1-2-2v-12a2 2 0 0 1 2-2Zm3.5 7a1.5 1.5 0 0 0 1.06-.44 1.52 1.52 0 0 0 .44-1.06 1.5 1.5 0 0 0-3 0 1.52 1.52 0 0 0 .44 1.06 1.5 1.5 0 0 0 1.06.44Zm-.5 3 2-2 2 2 4-4 3 3v3H12Z"/>
    <rect style="fill:var(--background)" x="36" y="12" width="34" height="44" rx="3"/>
    <path style="fill:var(--color-dark)" d="M40 40h26v2H40zM40 44h26v2H40zM40 48h26v2H40z"/>
    <path style="fill:var(--contrast)" d="M40 16.23h26v2H40z"/>
    <path style="fill:var(--color-dark)"
          d="M45 23.12v12h16v-12Zm0-2h16a2 2 0 0 1 2 2v12a2 2 0 0 1-2 2H45a2 2 0 0 1-2-2v-12a2 2 0 0 1 2-2Zm3.5 7a1.5 1.5 0 0 0 1.06-.44 1.52 1.52 0 0 0 .44-1.06 1.5 1.5 0 0 0-3 0 1.52 1.52 0 0 0 .44 1.06 1.5 1.5 0 0 0 1.06.44Zm-.5 3 2-2 2 2 4-4 3 3v3H48Z"/>
    <rect style="fill:var(--background)" x="72" y="12" width="34" height="44" rx="3"/>
    <path style="fill:var(--color-dark)" d="M76 40h26v2H76zM76 44h26v2H76zM76 48h26v2H76z"/>
    <path style="fill:var(--contrast)" d="M76 16.23h26v2H76z"/>
    <path style="fill:var(--color-dark)"
          d="M81 23.12v12h16v-12Zm0-2h16a2 2 0 0 1 2 2v12a2 2 0 0 1-2 2H81a2 2 0 0 1-2-2v-12a2 2 0 0 1 2-2Zm3.5 7a1.5 1.5 0 0 0 1.06-.44 1.52 1.52 0 0 0 .44-1.06 1.5 1.5 0 0 0-3 0 1.52 1.52 0 0 0 .44 1.06 1.5 1.5 0 0 0 1.06.44Zm-.5 3 2-2 2 2 4-4 3 3v3H84Z"/>
  </symbol>
  <symbol id="alternate-content" xmlns="http://www.w3.org/2000/svg" viewBox="0 0 89.34 68.35">
    <path style="fill:var(--background)" d="M0 10.86h89.34v27.33H0z"/>
    <path style="fill:var(--contrast)" d="M21.84 0h50v4h-50z"/>
    <path style="fill:var(--color-dark)"
          d="M36.82 19.44H84.5v2H36.82zM36.82 23.44H84.5v2H36.82zM36.82 27.44h36.79v2H36.82z"/>
    <path style="fill:var(--contrast)" d="M36.82 13.91h27.4v2h-27.4z"/>
    <path style="fill:var(--color-dark)"
          d="M7.56 15.8v17.29h21.72V15.8Zm0-2.89h21.72a2.63 2.63 0 0 1 1.92.85 3 3 0 0 1 .8 2v17.33a3 3 0 0 1-.8 2 2.62 2.62 0 0 1-1.92.84H7.56a2.64 2.64 0 0 1-1.92-.84 3 3 0 0 1-.8-2V15.8a3 3 0 0 1 .8-2 2.65 2.65 0 0 1 1.92-.85ZM12.31 23a2 2 0 0 0 1.44-.63 2.25 2.25 0 0 0 0-3.06 2 2 0 0 0-2.88 0 2.25 2.25 0 0 0 0 3.06 2 2 0 0 0 1.44.63Zm-.68 4.32 2.72-2.88 2.71 2.88 5.43-5.76 4.08 4.32v4.33H11.63Z"/>
    <path style="fill:var(--background)" d="M0 41.01h89.34v27.33H0z"/>
    <path style="fill:var(--color-dark)" d="M4.82 49.6H52.5v2H4.82zM4.82 53.6H52.5v2H4.82zM15.71 57.6H52.5v2H15.71z"/>
    <path style="fill:var(--contrast)" d="M25.1 44.07h27.4v2H25.1z"/>
    <path style="fill:var(--color-dark)"
          d="M60.06 46v17.24h21.72V46Zm0-2.88h21.72a2.62 2.62 0 0 1 1.92.84 3 3 0 0 1 .8 2v17.28a3 3 0 0 1-.8 2 2.62 2.62 0 0 1-1.92.84H60.06a2.64 2.64 0 0 1-1.92-.84 3 3 0 0 1-.8-2V46a3 3 0 0 1 .8-2 2.64 2.64 0 0 1 1.92-.84Zm4.75 10.08a2 2 0 0 0 1.44-.63 2.22 2.22 0 0 0 .6-1.53 2.26 2.26 0 0 0-.6-1.53 2 2 0 0 0-2.88 0 2.26 2.26 0 0 0-.6 1.53 2.22 2.22 0 0 0 .6 1.53 2 2 0 0 0 1.44.63Zm-.68 4.33 2.72-2.88 2.71 2.88L75 51.71 79.07 56v4.32H64.13Z"/>
  </symbol>
  <symbol id="gallery" xmlns="http://www.w3.org/2000/svg" viewBox="0 0 105 67.24">
    <path style="fill:var(--background)" d="M0 17.24h22.5v22.5H0z"/>
    <path style="fill:var(--color-dark)"
          d="M6.59 24.94V32h9.32v-7.06Zm0-1.18h9.32a1.18 1.18 0 0 1 1.17 1.18V32a1.18 1.18 0 0 1-1.17 1.18H6.59A1.18 1.18 0 0 1 5.42 32v-7.06a1.18 1.18 0 0 1 1.17-1.18Zm2 4.14a.91.91 0 0 0 .62-.26.92.92 0 0 0 0-1.26.91.91 0 0 0-.62-.26.89.89 0 0 0 0 1.78Zm-.29 1.77 1.2-1.18 1.17 1.18L13 27.31l1.75 1.77v1.77H8.34Z"/>
    <path style="fill:var(--color-dark)" d="M5.34 6.82h95.64v2H5.34z"/>
    <path style="fill:var(--contrast)" d="M28.32 0h50v4h-50z"/>
    <path style="fill:var(--color-dark)" d="M5.34 10.9h72.98v2H5.34z"/>
    <path style="fill:var(--background)" d="M27.5 17.24H50v22.5H27.5z"/>
    <path style="fill:var(--color-dark)"
          d="M34.09 24.94V32h9.32v-7.06Zm0-1.18h9.32a1.18 1.18 0 0 1 1.17 1.18V32a1.18 1.18 0 0 1-1.17 1.18h-9.32A1.18 1.18 0 0 1 32.92 32v-7.06a1.18 1.18 0 0 1 1.17-1.18Zm2 4.14a.91.91 0 0 0 .62-.26.92.92 0 0 0 0-1.26.91.91 0 0 0-.62-.26.89.89 0 0 0 0 1.78Zm-.29 1.77 1.2-1.18 1.17 1.18 2.33-2.36 1.75 1.77v1.77h-6.41Z"/>
    <path style="fill:var(--background)" d="M55 17.24h22.5v22.5H55z"/>
    <path style="fill:var(--color-dark)"
          d="M61.59 24.94V32h9.32v-7.06Zm0-1.18h9.32a1.18 1.18 0 0 1 1.17 1.18V32a1.18 1.18 0 0 1-1.17 1.18h-9.32A1.18 1.18 0 0 1 60.42 32v-7.06a1.18 1.18 0 0 1 1.17-1.18Zm2 4.14a.91.91 0 0 0 .62-.26.92.92 0 0 0 0-1.26.91.91 0 0 0-.62-.26.89.89 0 0 0 0 1.78Zm-.29 1.77 1.16-1.18 1.17 1.18L68 27.31l1.75 1.77v1.77h-6.41Z"/>
    <path style="fill:var(--background)" d="M82.5 17.24H105v22.5H82.5z"/>
    <path style="fill:var(--color-dark)"
          d="M89.09 24.94V32h9.32v-7.06Zm0-1.18h9.32a1.18 1.18 0 0 1 1.17 1.18V32a1.18 1.18 0 0 1-1.17 1.18h-9.32A1.18 1.18 0 0 1 87.92 32v-7.06a1.18 1.18 0 0 1 1.17-1.18Zm2 4.14a.91.91 0 0 0 .62-.26.92.92 0 0 0 0-1.26.91.91 0 0 0-.62-.26.89.89 0 0 0 0 1.78Zm-.29 1.77 1.2-1.18 1.17 1.18 2.33-2.36 1.75 1.77v1.77h-6.41Z"/>
    <path style="fill:var(--background)" d="M0 44.74h22.5v22.5H0z"/>
    <path style="fill:var(--color-dark)"
          d="M6.59 52.44v7.09h9.32v-7.09Zm0-1.18h9.32a1.18 1.18 0 0 1 1.17 1.18v7.09a1.18 1.18 0 0 1-1.17 1.18H6.59a1.18 1.18 0 0 1-1.17-1.18v-7.09a1.18 1.18 0 0 1 1.17-1.18Zm2 4.14a.91.91 0 0 0 .62-.26.92.92 0 0 0 0-1.26.91.91 0 0 0-.62-.26.89.89 0 0 0 0 1.78Zm-.29 1.77L9.5 56l1.17 1.18L13 54.81l1.75 1.77v1.77H8.34Z"/>
    <path style="fill:var(--background)" d="M27.5 44.74H50v22.5H27.5z"/>
    <path style="fill:var(--color-dark)"
          d="M34.09 52.44v7.09h9.32v-7.09Zm0-1.18h9.32a1.18 1.18 0 0 1 1.17 1.18v7.09a1.18 1.18 0 0 1-1.17 1.18h-9.32a1.18 1.18 0 0 1-1.17-1.18v-7.09a1.18 1.18 0 0 1 1.17-1.18Zm2 4.14a.91.91 0 0 0 .62-.26.92.92 0 0 0 0-1.26.91.91 0 0 0-.62-.26.89.89 0 0 0 0 1.78Zm-.29 1.77L37 56l1.17 1.18 2.33-2.36 1.75 1.77v1.77h-6.41Z"/>
    <path style="fill:var(--background)" d="M55 44.74h22.5v22.5H55z"/>
    <path style="fill:var(--color-dark)"
          d="M61.59 52.44v7.09h9.32v-7.09Zm0-1.18h9.32a1.18 1.18 0 0 1 1.17 1.18v7.09a1.18 1.18 0 0 1-1.17 1.18h-9.32a1.18 1.18 0 0 1-1.17-1.18v-7.09a1.18 1.18 0 0 1 1.17-1.18Zm2 4.14a.91.91 0 0 0 .62-.26.92.92 0 0 0 0-1.26.91.91 0 0 0-.62-.26.89.89 0 0 0 0 1.78Zm-.29 1.77L64.5 56l1.17 1.18L68 54.81l1.75 1.77v1.77h-6.41Z"/>
    <path style="fill:var(--background)" d="M82.5 44.74H105v22.5H82.5z"/>
    <path style="fill:var(--color-dark)"
          d="M89.09 52.44v7.09h9.32v-7.09Zm0-1.18h9.32a1.18 1.18 0 0 1 1.17 1.18v7.09a1.18 1.18 0 0 1-1.17 1.18h-9.32a1.18 1.18 0 0 1-1.17-1.18v-7.09a1.18 1.18 0 0 1 1.17-1.18Zm2 4.14a.91.91 0 0 0 .62-.26.92.92 0 0 0 0-1.26.91.91 0 0 0-.62-.26.89.89 0 0 0 0 1.78Zm-.29 1.77L92 56l1.17 1.18 2.33-2.36 1.75 1.77v1.77h-6.41Z"/>
  </symbol>
  <symbol id="carousel" xmlns="http://www.w3.org/2000/svg" viewBox="0 0 105 39">
    <path style="fill:var(--background); opacity: 0.6;" d="M0 3.5h105v31.71H0z"/>
    <path style="fill:var(--background)" d="M9.33 0h86.33v39H9.33z"/>
    <path
      d="M44.05 12.93v13.14H61V12.93Zm0-2.19H61a2.06 2.06 0 0 1 1.49.64 2.22 2.22 0 0 1 .62 1.55v13.14a2.24 2.24 0 0 1-.62 1.55 2.06 2.06 0 0 1-1.49.64H44.05a2.06 2.06 0 0 1-1.49-.64 2.24 2.24 0 0 1-.62-1.55V12.93a2.22 2.22 0 0 1 .62-1.55 2.06 2.06 0 0 1 1.49-.64Zm3.7 7.67a1.56 1.56 0 0 0 1.12-.49 1.68 1.68 0 0 0 .46-1.16 1.71 1.71 0 0 0-.46-1.16 1.55 1.55 0 0 0-1.12-.48 1.54 1.54 0 0 0-1.12.48 1.68 1.68 0 0 0-.47 1.16 1.64 1.64 0 0 0 .47 1.16 1.55 1.55 0 0 0 1.12.49Zm-.53 3.28 2.11-2.19 2.11 2.19 4.23-4.38 3.17 3.28v3.29H47.22Z"
      style="fill:var(--color-dark)"/>
    <rect style="fill:var(--contrast)" x="2.5" y="16.36" width="6" height="6" rx=".29"/>
    <rect style="fill:var(--background)" x="2.8" y="16.66" width="5.4" height="5.4" rx=".29"/>
    <path style="fill:var(--contrast)" transform="rotate(46.88 5.452 20.063)" d="M4.28 19.91h2.33v.3H4.28z"/>
    <path style="fill:var(--contrast)" transform="rotate(-43.12 5.503 18.619)" d="M4.34 18.46h2.33v.3H4.34z"/>
    <rect style="fill:var(--contrast)" x="96.5" y="16.36" width="6" height="6" rx=".29"/>
    <rect style="fill:var(--background)" x="96.8" y="16.66" width="5.4" height="5.4" rx=".29"/>
    <path style="fill:var(--contrast)" transform="rotate(-133.12 99.543 18.664)" d="M98.38 18.51h2.33v.3h-2.33z"/>
    <path style="fill:var(--contrast)" transform="rotate(136.88 99.502 20.1)" d="M98.33 19.95h2.33v.3h-2.33z"/>
  </symbol>
  <symbol id="slider" xmlns="http://www.w3.org/2000/svg" viewBox="0 0 105 39">
    <path style="fill:var(--background)" d="M0 0h105v39H0z"/>
    <path
      d="M45.45 12.93v13.14h16.9V12.93Zm0-2.19h16.9a2.1 2.1 0 0 1 1.5.64 2.25 2.25 0 0 1 .61 1.55v13.14a2.27 2.27 0 0 1-.61 1.55 2.1 2.1 0 0 1-1.5.64h-16.9a2.06 2.06 0 0 1-1.45-.64 2.24 2.24 0 0 1-.62-1.55V12.93a2.22 2.22 0 0 1 .62-1.55 2.06 2.06 0 0 1 1.49-.64Zm3.7 7.67a1.56 1.56 0 0 0 1.12-.49 1.63 1.63 0 0 0 .46-1.16 1.67 1.67 0 0 0-.46-1.16 1.55 1.55 0 0 0-1.12-.48 1.54 1.54 0 0 0-1.15.48 1.68 1.68 0 0 0-.47 1.16 1.64 1.64 0 0 0 .47 1.16 1.55 1.55 0 0 0 1.12.49Zm-.53 3.28 2.11-2.19 2.12 2.19 4.22-4.38 3.17 3.28v3.29H48.62Z"
      style="fill:var(--color-dark); opacity: 0.3;"/>
    <path style="fill:var(--contrast)" transform="rotate(46.88 4.043 20.195)" d="M2.88 20.05h2.33v.3H2.88z"/>
    <path style="fill:var(--contrast)" transform="rotate(-43.12 4.104 18.753)" d="M2.93 18.6h2.33v.3H2.93z"/>
    <path style="fill:var(--contrast)" transform="rotate(-133.12 100.946 18.804)" d="M99.78 18.65h2.33v.3h-2.33z"/>
    <path style="fill:var(--contrast)" transform="rotate(136.88 100.902 20.243)" d="M99.73 20.09h2.33v.3h-2.33z"/>
    <path style="fill:var(--contrast)" d="M34.99 10.85h37.67v2H34.99z"/>
    <path style="fill:var(--color-dark)"
          d="M19.37 18.15h66.25v2H19.37zM19.37 22.15h66.25v2H19.37zM19.37 26.15h66.25v2H19.37z"/>
  </symbol>
  <symbol id="last-posts" xmlns="http://www.w3.org/2000/svg" viewBox="0 0 106.27 51.78">
    <path style="fill:var(--contrast)" d="M28.14 0h50v4h-50z"/>
    <path style="fill:var(--background)" d="M0 7.78h25v44H0z"/>
    <path style="fill:var(--color-dark)" d="M2 32.83h21v2H2zM2 36.83h21v2H2zM2 40.83h21v2H2z"/>
    <path style="fill:var(--contrast)" d="M2 28.29h3.8v2H2z"/>
    <path style="fill:var(--color-dark)"
          d="M5.8 11.33v9.81h13.4v-9.81Zm0-1.63h13.4a1.69 1.69 0 0 1 1.18.48 1.61 1.61 0 0 1 .49 1.15v9.81a1.61 1.61 0 0 1-.49 1.15 1.69 1.69 0 0 1-1.18.48H5.8a1.69 1.69 0 0 1-1.18-.48 1.61 1.61 0 0 1-.49-1.15v-9.81a1.61 1.61 0 0 1 .49-1.15A1.69 1.69 0 0 1 5.8 9.7Zm2.93 5.72a1.25 1.25 0 0 0 .89-.36 1.19 1.19 0 0 0 .37-.87 1.21 1.21 0 0 0-.37-.87 1.29 1.29 0 0 0-1.77 0 1.21 1.21 0 0 0-.37.87 1.19 1.19 0 0 0 .37.87 1.25 1.25 0 0 0 .88.36Zm-.41 2.45L10 16.23l1.67 1.64L15 14.6l2.51 2.45v2.45H8.32Z"/>
    <path style="fill:var(--contrast)" d="M6.8 28.29h3.8v2H6.8zM11.6 28.29h3.8v2h-3.8z"/>
    <path style="fill:var(--color-dark)" d="M2 25.51h15.74v2H2z"/>
    <path style="fill:var(--background)" d="M27.09 7.78h25v44h-25z"/>
    <path style="fill:var(--color-dark)" d="M29.09 32.83h21v2h-21zM29.09 36.83h21v2h-21zM29.09 40.83h21v2h-21z"/>
    <path style="fill:var(--contrast)" d="M29.09 28.29h3.8v2h-3.8z"/>
    <path style="fill:var(--color-dark)"
          d="M32.9 11.33v9.81h13.39v-9.81Zm0-1.63h13.39a1.67 1.67 0 0 1 1.18.48 1.61 1.61 0 0 1 .53 1.15v9.81a1.61 1.61 0 0 1-.49 1.15 1.67 1.67 0 0 1-1.18.48H32.9a1.7 1.7 0 0 1-1.19-.48 1.61 1.61 0 0 1-.49-1.15v-9.81a1.61 1.61 0 0 1 .49-1.15 1.7 1.7 0 0 1 1.19-.48Zm2.93 5.72a1.25 1.25 0 0 0 .88-.36 1.19 1.19 0 0 0 .37-.87 1.21 1.21 0 0 0-.37-.87 1.29 1.29 0 0 0-1.77 0 1.21 1.21 0 0 0-.37.87 1.19 1.19 0 0 0 .37.87 1.25 1.25 0 0 0 .89.36Zm-.42 2.45 1.67-1.64 1.67 1.64 3.35-3.27 2.51 2.45v2.45h-9.2Z"/>
    <path style="fill:var(--contrast)" d="M33.89 28.29h3.8v2h-3.8zM38.69 28.29h3.8v2h-3.8z"/>
    <path style="fill:var(--color-dark)" d="M29.09 25.51h15.74v2H29.09z"/>
    <path style="fill:var(--background)" d="M54.18 7.78h25v44h-25z"/>
    <path style="fill:var(--color-dark)" d="M56.18 32.83h21v2h-21zM56.18 36.83h21v2h-21zM56.18 40.83h21v2h-21z"/>
    <path style="fill:var(--contrast)" d="M56.18 28.29h3.8v2h-3.8z"/>
    <path style="fill:var(--color-dark)"
          d="M60 11.33v9.81h13.38v-9.81Zm0-1.63h13.38a1.67 1.67 0 0 1 1.18.48 1.61 1.61 0 0 1 .49 1.15v9.81a1.61 1.61 0 0 1-.49 1.15 1.67 1.67 0 0 1-1.18.48H60a1.7 1.7 0 0 1-1.19-.48 1.61 1.61 0 0 1-.49-1.15v-9.81a1.61 1.61 0 0 1 .49-1.15A1.7 1.7 0 0 1 60 9.7Zm2.93 5.72a1.25 1.25 0 0 0 .88-.36 1.19 1.19 0 0 0 .37-.87 1.21 1.21 0 0 0-.37-.87 1.29 1.29 0 0 0-1.77 0 1.21 1.21 0 0 0-.37.87 1.19 1.19 0 0 0 .37.87 1.25 1.25 0 0 0 .89.36Zm-.42 2.45 1.67-1.64 1.68 1.64 3.34-3.27 2.51 2.45v2.45H62.5Z"/>
    <path style="fill:var(--contrast)" d="M60.98 28.29h3.8v2h-3.8zM65.78 28.29h3.8v2h-3.8z"/>
    <path style="fill:var(--color-dark)" d="M56.18 25.51h15.74v2H56.18z"/>
    <path style="fill:var(--background)" d="M81.27 7.78h25v44h-25z"/>
    <path style="fill:var(--color-dark)" d="M83.27 32.83h21v2h-21zM83.27 36.83h21v2h-21zM83.27 40.83h21v2h-21z"/>
    <path style="fill:var(--contrast)" d="M83.28 28.29h3.8v2h-3.8z"/>
    <path style="fill:var(--color-dark)"
          d="M87.08 11.33v9.81h13.39v-9.81Zm0-1.63h13.39a1.67 1.67 0 0 1 1.18.48 1.57 1.57 0 0 1 .49 1.15v9.81a1.57 1.57 0 0 1-.49 1.15 1.67 1.67 0 0 1-1.18.48H87.08a1.7 1.7 0 0 1-1.19-.48 1.61 1.61 0 0 1-.49-1.15v-9.81a1.61 1.61 0 0 1 .49-1.15 1.7 1.7 0 0 1 1.19-.48ZM90 15.42a1.25 1.25 0 0 0 .88-.36 1.19 1.19 0 0 0 .37-.87 1.21 1.21 0 0 0-.37-.87A1.24 1.24 0 0 0 90 13a1.26 1.26 0 0 0-.89.35 1.21 1.21 0 0 0-.37.87 1.19 1.19 0 0 0 .37.87 1.27 1.27 0 0 0 .89.36Zm-.42 2.45 1.67-1.64 1.68 1.64 3.34-3.27 2.51 2.45v2.45h-9.2Z"/>
    <path style="fill:var(--contrast)" d="M88.07 28.29h3.8v2h-3.8zM92.87 28.29h3.8v2h-3.8z"/>
    <path style="fill:var(--color-dark)" d="M83.28 25.51h15.74v2H83.28z"/>
  </symbol>
  <symbol id="footer" xmlns="http://www.w3.org/2000/svg" viewBox="0 0 106.27 37.56">
    <defs>
      <style>.cls-2,.cls-4{fill:#3a3e3f;fill-opacity:.5}.cls-4{fill:#b41a18}</style>
    </defs>
    <path style="fill:var(--background)" d="M0 0h106.27v37.56H0z"/>
    <path style="fill:var(--color-dark)" d="M2 23.85h21v2H2zM2 27.85h21v2H2zM2 31.85h21v2H2z"/>
    <path
      d="M3.67 9.57v9.8h13.39v-9.8Zm0-1.64h13.39a1.7 1.7 0 0 1 1.19.48 1.64 1.64 0 0 1 .49 1.16v9.8a1.64 1.64 0 0 1-.49 1.16 1.74 1.74 0 0 1-1.19.48H3.67a1.72 1.72 0 0 1-1.18-.48A1.6 1.6 0 0 1 2 19.37v-9.8a1.6 1.6 0 0 1 .49-1.16 1.67 1.67 0 0 1 1.18-.48Zm2.93 5.72a1.29 1.29 0 0 0 .89-.36 1.2 1.2 0 0 0 0-1.73 1.28 1.28 0 0 0-1.78 0 1.22 1.22 0 0 0 0 1.73 1.29 1.29 0 0 0 .89.36Zm-.42 2.45 1.68-1.63 1.67 1.63 3.35-3.27 2.51 2.46v2.45H6.18Z"
      style="fill:var(--color-dark)"/>
    <path style="fill:var(--contrast)" d="M2 3.71h11.92v2H2z"/>
    <path style="fill:var(--color-dark)"
          d="M29.09 9.85h21.12v2H29.09zM29.09 13.85h11.3v2h-11.3zM29.09 17.85h17.05v2H29.09z"/>
    <path style="fill:var(--contrast)" d="M29.09 3.71h19.17v2H29.09z"/>
    <path style="fill:var(--color-dark)"
          d="M56.18 9.85H68.3v2H56.18zM56.18 13.85h9.89v2h-9.89zM56.18 17.85h14.21v2H56.18zM56.18 21.85H75.7v2H56.18z"/>
    <path style="fill:var(--contrast)" d="M56.18 3.71h7.4v2h-7.4z"/>
    <path style="fill:var(--color-dark)" d="M83.27 9.85h21v2h-21zM83.27 13.85h21v2h-21zM83.27 17.85h21v2h-21z"/>
    <path style="fill:var(--contrast)" d="M83.27 3.71h16.31v2H83.27z"/>
  </symbol>
  <symbol id="header" xmlns="http://www.w3.org/2000/svg" viewBox="0 0 106.27 18.65">
    <path style="fill:var(--background)" d="M0 0h106.27v18.65H0z"/>
    <path
      d="M5.72 4.42v9.81h13.39V4.42Zm0-1.64h13.39a1.72 1.72 0 0 1 1.18.48 1.61 1.61 0 0 1 .49 1.16v9.81a1.57 1.57 0 0 1-.49 1.15 1.67 1.67 0 0 1-1.18.48H5.72a1.67 1.67 0 0 1-1.18-.48 1.57 1.57 0 0 1-.49-1.15V4.42a1.61 1.61 0 0 1 .49-1.16 1.72 1.72 0 0 1 1.18-.48Zm2.93 5.73a1.29 1.29 0 0 0 .89-.36 1.24 1.24 0 0 0 .36-.87 1.23 1.23 0 0 0-.36-.87 1.28 1.28 0 0 0-1.78 0 1.23 1.23 0 0 0-.37.87 1.25 1.25 0 0 0 .37.87 1.29 1.29 0 0 0 .89.36ZM8.23 11 9.9 9.32 11.58 11l3.35-3.27 2.51 2.45v2.45H8.23Z"
      style="fill:var(--color-dark)"/>
    <path style="fill:var(--color-dark)"
          d="M25.47 8.32h13.06v2H25.47zM41.53 8.32h6.56v2h-6.56zM51.08 8.32h10.67v2H51.08zM91.75 8.32h10.67v2H91.75z"/>
    <path
      d="m90.05 11-1.44-1.27a1.38 1.38 0 0 0 .34-.9 1.4 1.4 0 0 0-.48-1 1.79 1.79 0 0 0-1.18-.44 1.76 1.76 0 0 0-1.18.44 1.38 1.38 0 0 0-.49 1 1.39 1.39 0 0 0 .49 1.05 1.84 1.84 0 0 0 2.19.12l1.45 1.28h.06l.24-.21Zm-1.88-1.39a1.33 1.33 0 0 1-.88.33 1.31 1.31 0 0 1-.88-.33 1 1 0 0 1 0-1.57 1.31 1.31 0 0 1 .88-.32 1.32 1.32 0 0 1 .88.32 1 1 0 0 1 0 1.57Z"
      style="fill:var(--color-dark)"/>
  </symbol>
</svg>
