<?xml version="1.0" encoding="UTF-8"?>
<svg id="Calque_1" data-name="Calque 1" xmlns="http://www.w3.org/2000/svg" viewBox="0 0 115.02 77.12">
  <defs>
    <style>
      .cls-1 {
        fill: #fff;
      }

      .cls-2 {
        fill: #7f89ab;
      }

      .cls-3 {
        fill: rgba(124, 133, 166, .5);
      }

      .cls-4 {
        fill: #7c85a6;
        fill-rule: evenodd;
      }
    </style>
  </defs>
  <rect class="cls-1" x=".09" y="59.09" width="114.81" height="18.04"/>
  <g id="SVGRepo_iconCarrier" data-name="SVGRepo iconCarrier">
    <rect class="cls-1" x="1.32" y="59.17" width="9.28" height="9.37"/>
    <path class="cls-4" d="m2.09,63.86c0-2.16,1.73-3.9,3.87-3.9s3.87,1.75,3.87,3.9-1.73,3.9-3.87,3.9-3.87-1.75-3.87-3.9Zm3.87-2.34c-.85,0-1.55.7-1.55,1.56s.69,1.56,1.55,1.56,1.55-.7,1.55-1.56-.69-1.56-1.55-1.56Zm1.98,3.9c.29.19.28.61.01.83-.54.46-1.23.73-1.99.73s-1.44-.27-1.98-.72c-.27-.23-.28-.64.01-.84.09-.06.19-.11.3-.16.44-.18.99-.24,1.67-.24s1.24.05,1.68.23c.11.04.21.1.3.16Z"/>
  </g>
  <rect class="cls-3" x="2.1" y="68.25" width="111.03" height="2"/>
  <rect class="cls-3" x="2.1" y="71.08" width="111.03" height="2"/>
  <rect class="cls-3" x="2.1" y="73.92" width="73.57" height="2"/>
  <rect class="cls-2" x="11.98" y="61.93" width="30.34" height="1.93"/>
  <polygon class="cls-2" points="25.63 65.76 11.98 65.76 12.98 64.55 26.63 64.55 25.63 65.76"/>
  <rect class="cls-1" x=".21" y="39.42" width="114.81" height="18.04"/>
  <g id="SVGRepo_iconCarrier-2" data-name="SVGRepo iconCarrier">
    <rect class="cls-1" x="1.43" y="39.51" width="9.28" height="9.37"/>
    <path class="cls-4" d="m2.21,44.19c0-2.16,1.73-3.9,3.87-3.9s3.87,1.75,3.87,3.9-1.73,3.9-3.87,3.9-3.87-1.75-3.87-3.9Zm3.87-2.34c-.85,0-1.55.7-1.55,1.56s.69,1.56,1.55,1.56,1.55-.7,1.55-1.56-.69-1.56-1.55-1.56Zm1.98,3.9c.29.19.28.61.01.83-.54.46-1.23.73-1.99.73s-1.44-.27-1.98-.72c-.27-.23-.28-.64.01-.84.09-.06.19-.11.3-.16.44-.18.99-.24,1.67-.24s1.24.05,1.68.23c.11.04.21.1.3.16Z"/>
  </g>
  <rect class="cls-3" x="2.21" y="48.58" width="111.03" height="2"/>
  <rect class="cls-3" x="2.21" y="51.42" width="111.03" height="2"/>
  <rect class="cls-3" x="2.21" y="54.25" width="73.57" height="2"/>
  <rect class="cls-2" x="12.09" y="42.26" width="30.34" height="1.93"/>
  <polygon class="cls-2" points="25.75 46.1 12.09 46.1 13.09 44.89 26.75 44.89 25.75 46.1"/>
  <rect class="cls-1" y="19.67" width="114.81" height="18.04"/>
  <g id="SVGRepo_iconCarrier-3" data-name="SVGRepo iconCarrier">
    <rect class="cls-1" x="1.23" y="19.75" width="9.28" height="9.37"/>
    <path class="cls-4" d="m2,24.44c0-2.16,1.73-3.9,3.87-3.9s3.87,1.75,3.87,3.9-1.73,3.9-3.87,3.9-3.87-1.75-3.87-3.9Zm3.87-2.34c-.85,0-1.55.7-1.55,1.56s.69,1.56,1.55,1.56,1.55-.7,1.55-1.56-.69-1.56-1.55-1.56Zm1.98,3.9c.29.19.28.61.01.83-.54.46-1.23.73-1.99.73s-1.44-.27-1.98-.72c-.27-.23-.28-.64.01-.84.09-.06.19-.11.3-.16.44-.18.99-.24,1.67-.24s1.24.05,1.68.23c.11.04.21.1.3.16Z"/>
  </g>
  <rect class="cls-3" x="2" y="28.83" width="111.03" height="2"/>
  <rect class="cls-3" x="2" y="31.66" width="111.03" height="2"/>
  <rect class="cls-3" x="2" y="34.5" width="73.57" height="2"/>
  <rect class="cls-2" x="11.88" y="22.51" width="30.34" height="1.93"/>
  <polygon class="cls-2" points="25.54 26.34 11.88 26.34 12.88 25.13 26.54 25.13 25.54 26.34"/>
  <rect class="cls-1" x=".11" width="114.81" height="18.04"/>
  <g id="SVGRepo_iconCarrier-4" data-name="SVGRepo iconCarrier">
    <rect class="cls-1" x="1.34" y=".09" width="9.28" height="9.37"/>
    <path class="cls-4" d="m2.11,4.77c0-2.16,1.73-3.9,3.87-3.9s3.87,1.75,3.87,3.9-1.73,3.9-3.87,3.9-3.87-1.75-3.87-3.9Zm3.87-2.34c-.85,0-1.55.7-1.55,1.56s.69,1.56,1.55,1.56,1.55-.7,1.55-1.56-.69-1.56-1.55-1.56Zm1.98,3.9c.29.19.28.61.01.83-.54.46-1.23.73-1.99.73s-1.44-.27-1.98-.72c-.27-.23-.28-.64.01-.84.09-.06.19-.11.3-.16.44-.18.99-.24,1.67-.24s1.24.05,1.68.23c.11.04.21.1.3.16Z"/>
  </g>
  <rect class="cls-3" x="2.12" y="9.16" width="111.03" height="2"/>
  <rect class="cls-3" x="2.12" y="12" width="111.03" height="2"/>
  <rect class="cls-3" x="2.12" y="14.83" width="73.57" height="2"/>
  <rect class="cls-2" x="12" y="2.84" width="30.34" height="1.93"/>
  <polygon class="cls-2" points="25.65 6.67 12 6.67 13 5.47 26.65 5.47 25.65 6.67"/>
</svg>